<svg width="48" height="49" viewBox="0 0 48 49" fill="none" xmlns="http://www.w3.org/2000/svg">
<path d="M40.3895 3.14844H7.61048C5.06418 3.14844 3 5.21262 3 7.75892V40.538C3 43.0843 5.06418 45.1484 7.61048 45.1484H40.3895C42.9358 45.1484 45 43.0843 45 40.538V7.75892C45 5.21262 42.9358 3.14844 40.3895 3.14844Z" fill="#71DAD3"/>
<path d="M23.9993 31.4214C20.0224 31.4214 16.7871 28.1861 16.7871 24.2092C16.7871 20.2323 20.0224 16.9971 23.9993 16.9971C27.9762 16.9971 31.2114 20.2323 31.2114 24.2092C31.2114 28.1861 27.9762 31.4214 23.9993 31.4214ZM23.9993 19.4976C21.4011 19.4976 19.2876 21.611 19.2876 24.2092C19.2876 26.8074 21.4011 28.9208 23.9993 28.9208C26.5975 28.9208 28.7109 26.8074 28.7109 24.2092C28.7109 21.611 26.5975 19.4976 23.9993 19.4976Z" fill="#09152A"/>
<path d="M31.438 18.3886C32.3753 18.3886 33.1352 17.6288 33.1352 16.6914C33.1352 15.754 32.3753 14.9941 31.438 14.9941C30.5006 14.9941 29.7407 15.754 29.7407 16.6914C29.7407 17.6288 30.5006 18.3886 31.438 18.3886Z" fill="#09152A"/>
<path d="M30.1641 37.9825H17.8358C13.6403 37.9825 10.2261 34.5694 10.2261 30.3728V17.9213C10.2261 13.7258 13.6392 10.3115 17.8358 10.3115H30.1641C34.3596 10.3115 37.7739 13.7246 37.7739 17.9213V30.3728C37.7739 34.5683 34.3608 37.9825 30.1641 37.9825ZM17.8358 12.8132C15.0179 12.8132 12.7266 15.1057 12.7266 17.9224V30.374C12.7266 33.1919 15.0191 35.4832 17.8358 35.4832H30.1641C32.982 35.4832 35.2733 33.1907 35.2733 30.374V17.9224C35.2733 15.1057 32.9809 12.8132 30.1641 12.8132H17.8358Z" fill="#09152A"/>
</svg>
