<svg width="48" height="49" viewBox="0 0 48 49" fill="none" xmlns="http://www.w3.org/2000/svg">
<path d="M42 3.14844H5.99062C4.34062 3.14844 3 4.50781 3 6.17656V42.1203C3 43.7891 4.34062 45.1484 5.99062 45.1484H42C43.65 45.1484 45 43.7891 45 42.1203V6.17656C45 4.50781 43.65 3.14844 42 3.14844ZM15.6937 39.1484H9.46875V19.1047H15.7031V39.1484H15.6937ZM12.5812 16.3672C10.5844 16.3672 8.97188 14.7453 8.97188 12.7578C8.97188 10.7703 10.5844 9.14844 12.5812 9.14844C14.5687 9.14844 16.1906 10.7703 16.1906 12.7578C16.1906 14.7547 14.5781 16.3672 12.5812 16.3672ZM39.0281 39.1484H32.8031V29.3984C32.8031 27.0734 32.7562 24.0828 29.5687 24.0828C26.325 24.0828 25.8281 26.6141 25.8281 29.2297V39.1484H19.6031V19.1047H25.575V21.8422H25.6594C26.4937 20.2672 28.5281 18.6078 31.5563 18.6078C37.8563 18.6078 39.0281 22.7609 39.0281 28.1609V39.1484Z" fill="#71DBD4"/>
</svg>
