<svg width="48" height="49" viewBox="0 0 48 49" fill="none" xmlns="http://www.w3.org/2000/svg">
<path d="M40.5 3.14844H7.5C6.30653 3.14844 5.16193 3.62254 4.31802 4.46646C3.47411 5.31037 3 6.45496 3 7.64844L3 40.6484C3 41.8419 3.47411 42.9865 4.31802 43.8304C5.16193 44.6743 6.30653 45.1484 7.5 45.1484H20.3672V30.8694H14.4609V24.1484H20.3672V19.0259C20.3672 13.1994 23.8359 9.98094 29.1488 9.98094C31.6931 9.98094 34.3538 10.4347 34.3538 10.4347V16.1534H31.4222C28.5338 16.1534 27.6328 17.9459 27.6328 19.7844V24.1484H34.0809L33.0497 30.8694H27.6328V45.1484H40.5C41.6935 45.1484 42.8381 44.6743 43.682 43.8304C44.5259 42.9865 45 41.8419 45 40.6484V7.64844C45 6.45496 44.5259 5.31037 43.682 4.46646C42.8381 3.62254 41.6935 3.14844 40.5 3.14844Z" fill="#71DBD4"/>
</svg>
